<?xml version="1.0" encoding="UTF-8"?>
<svg xmlns="http://www.w3.org/2000/svg" id="Layer_1" data-name="Layer 1" viewBox="0 0 24 24">
  <path d="m5.366,2h-2.366c-.552,0-1-.447-1-1s.448-1,1-1h4c1.103,0,2,.897,2,2v4c0,.553-.448,1-1,1s-1-.447-1-1v-2.655c-2.798,1.618-4.713,4.518-5.004,7.745-.047.52-.483.91-.995.91-.55-.05-1.046-.54-.997-1.09C.331,7.284,2.359,3.997,5.366,2Zm1.634,12H3c-1.654,0-3,1.346-3,3v4c0,1.654,1.346,3,3,3h4c1.654,0,3-1.346,3-3v-4c0-1.654-1.346-3-3-3Zm16.996-.91c.05-.55-.356-1.036-.906-1.086-.543-.05-1.036.356-1.086.906-.291,3.226-2.205,6.126-5.004,7.744v-2.655c0-.553-.447-1-1-1s-1,.447-1,1v4c0,1.103.897,2,2,2h4c.553,0,1-.447,1-1s-.447-1-1-1h-2.366c3.007-1.997,5.036-5.284,5.362-8.91Zm.004-7.59c0-3.032-2.468-5.5-5.5-5.5s-5.5,2.468-5.5,5.5,2.468,5.5,5.5,5.5,5.5-2.468,5.5-5.5Z"/>
</svg>
